<mxfile host="drawio-plugin" modified="2025-03-07T09:38:12.657Z" agent="Mozilla/5.0 (Macintosh; Intel Mac OS X 10_15_7) AppleWebKit/537.36 (KHTML, like Gecko) Chrome/122.0.0.0 Safari/537.36" etag="-V0kimJ1wyV39hEQR8QY" version="22.1.22" type="embed" pages="2">
  <diagram id="23iRSUPoRavnBvh4doch" name="BMI">
    <mxGraphModel dx="1858" dy="866" grid="1" gridSize="10" guides="1" tooltips="1" connect="1" arrows="1" fold="1" page="1" pageScale="1" pageWidth="827" pageHeight="1169" math="0" shadow="0">
      <root>
        <mxCell id="0" />
        <mxCell id="1" parent="0" />
        <mxCell id="ytLREM9rm10Bm9gOhJtb-3" value="" style="edgeStyle=orthogonalEdgeStyle;rounded=0;orthogonalLoop=1;jettySize=auto;html=1;" edge="1" parent="1" source="Dp_t5exLWAjFRZMRCDGs-1" target="ytLREM9rm10Bm9gOhJtb-2">
          <mxGeometry relative="1" as="geometry" />
        </mxCell>
        <mxCell id="Dp_t5exLWAjFRZMRCDGs-1" value="" style="ellipse;fillColor=strokeColor;html=1;" vertex="1" parent="1">
          <mxGeometry x="230" y="70" width="30" height="30" as="geometry" />
        </mxCell>
        <mxCell id="ytLREM9rm10Bm9gOhJtb-5" value="" style="edgeStyle=orthogonalEdgeStyle;rounded=0;orthogonalLoop=1;jettySize=auto;html=1;" edge="1" parent="1" source="ytLREM9rm10Bm9gOhJtb-2" target="ytLREM9rm10Bm9gOhJtb-4">
          <mxGeometry relative="1" as="geometry" />
        </mxCell>
        <mxCell id="ytLREM9rm10Bm9gOhJtb-2" value="Wie viel wiegen Sie?" style="rounded=1;whiteSpace=wrap;html=1;" vertex="1" parent="1">
          <mxGeometry x="187.5" y="180" width="115" height="40" as="geometry" />
        </mxCell>
        <mxCell id="ytLREM9rm10Bm9gOhJtb-7" value="" style="edgeStyle=orthogonalEdgeStyle;rounded=0;orthogonalLoop=1;jettySize=auto;html=1;" edge="1" parent="1" source="ytLREM9rm10Bm9gOhJtb-4" target="ytLREM9rm10Bm9gOhJtb-6">
          <mxGeometry relative="1" as="geometry" />
        </mxCell>
        <mxCell id="ytLREM9rm10Bm9gOhJtb-4" value="Wie groß sind sie?" style="rounded=1;whiteSpace=wrap;html=1;" vertex="1" parent="1">
          <mxGeometry x="187.5" y="270" width="115" height="40" as="geometry" />
        </mxCell>
        <mxCell id="E6LtS3TQhdgUSfiBorde-2" value="" style="edgeStyle=orthogonalEdgeStyle;rounded=0;orthogonalLoop=1;jettySize=auto;html=1;" edge="1" parent="1" source="ytLREM9rm10Bm9gOhJtb-6" target="E6LtS3TQhdgUSfiBorde-1">
          <mxGeometry relative="1" as="geometry" />
        </mxCell>
        <mxCell id="ytLREM9rm10Bm9gOhJtb-6" value="BMI = Körpergewicht / größe" style="whiteSpace=wrap;html=1;rounded=1;" vertex="1" parent="1">
          <mxGeometry x="185" y="380" width="120" height="40" as="geometry" />
        </mxCell>
        <mxCell id="E6LtS3TQhdgUSfiBorde-4" value="" style="edgeStyle=orthogonalEdgeStyle;rounded=0;orthogonalLoop=1;jettySize=auto;html=1;" edge="1" parent="1" source="E6LtS3TQhdgUSfiBorde-1" target="E6LtS3TQhdgUSfiBorde-3">
          <mxGeometry relative="1" as="geometry" />
        </mxCell>
        <mxCell id="jExioh1pFWAfIltBA22q-10" style="edgeStyle=orthogonalEdgeStyle;rounded=0;orthogonalLoop=1;jettySize=auto;html=1;entryX=0.5;entryY=0;entryDx=0;entryDy=0;" edge="1" parent="1" source="E6LtS3TQhdgUSfiBorde-1" target="UAd3JiqRcC5mZeyxN5Cx-1">
          <mxGeometry relative="1" as="geometry" />
        </mxCell>
        <mxCell id="E6LtS3TQhdgUSfiBorde-1" value="" style="rhombus;" vertex="1" parent="1">
          <mxGeometry x="230" y="480" width="30" height="30" as="geometry" />
        </mxCell>
        <mxCell id="jExioh1pFWAfIltBA22q-7" style="edgeStyle=orthogonalEdgeStyle;rounded=0;orthogonalLoop=1;jettySize=auto;html=1;entryX=1;entryY=0.5;entryDx=0;entryDy=0;" edge="1" parent="1" source="E6LtS3TQhdgUSfiBorde-3" target="jExioh1pFWAfIltBA22q-1">
          <mxGeometry relative="1" as="geometry">
            <Array as="points">
              <mxPoint x="440" y="835" />
            </Array>
          </mxGeometry>
        </mxCell>
        <mxCell id="E6LtS3TQhdgUSfiBorde-3" value="Untergewicht" style="rounded=1;whiteSpace=wrap;html=1;" vertex="1" parent="1">
          <mxGeometry x="370" y="475" width="115" height="40" as="geometry" />
        </mxCell>
        <mxCell id="E6LtS3TQhdgUSfiBorde-5" value="[BMI &amp;lt; 18,5]" style="text;html=1;align=center;verticalAlign=middle;resizable=0;points=[];autosize=1;strokeColor=none;fillColor=none;" vertex="1" parent="1">
          <mxGeometry x="270" y="468" width="90" height="30" as="geometry" />
        </mxCell>
        <mxCell id="UAd3JiqRcC5mZeyxN5Cx-7" value="" style="edgeStyle=orthogonalEdgeStyle;rounded=0;orthogonalLoop=1;jettySize=auto;html=1;" edge="1" parent="1" source="UAd3JiqRcC5mZeyxN5Cx-1" target="UAd3JiqRcC5mZeyxN5Cx-6">
          <mxGeometry relative="1" as="geometry" />
        </mxCell>
        <mxCell id="UAd3JiqRcC5mZeyxN5Cx-1" value="" style="rhombus;" vertex="1" parent="1">
          <mxGeometry x="62.5" y="600" width="30" height="30" as="geometry" />
        </mxCell>
        <mxCell id="UAd3JiqRcC5mZeyxN5Cx-12" value="" style="edgeStyle=orthogonalEdgeStyle;rounded=0;orthogonalLoop=1;jettySize=auto;html=1;exitX=0;exitY=0.5;exitDx=0;exitDy=0;" edge="1" parent="1" source="UAd3JiqRcC5mZeyxN5Cx-1" target="UAd3JiqRcC5mZeyxN5Cx-11">
          <mxGeometry relative="1" as="geometry">
            <mxPoint x="-142.5" y="634.9999999999998" as="sourcePoint" />
          </mxGeometry>
        </mxCell>
        <mxCell id="jExioh1pFWAfIltBA22q-8" style="edgeStyle=orthogonalEdgeStyle;rounded=0;orthogonalLoop=1;jettySize=auto;html=1;entryX=0.5;entryY=0;entryDx=0;entryDy=0;" edge="1" parent="1" source="UAd3JiqRcC5mZeyxN5Cx-6" target="jExioh1pFWAfIltBA22q-1">
          <mxGeometry relative="1" as="geometry" />
        </mxCell>
        <mxCell id="UAd3JiqRcC5mZeyxN5Cx-6" value="Normalgewicht" style="rounded=1;whiteSpace=wrap;html=1;" vertex="1" parent="1">
          <mxGeometry x="299" y="595" width="115" height="40" as="geometry" />
        </mxCell>
        <mxCell id="UAd3JiqRcC5mZeyxN5Cx-8" value="[BMI &amp;gt;= 18,5 &amp;amp;&amp;amp; BMI &amp;lt;=24,9]" style="text;html=1;align=center;verticalAlign=middle;resizable=0;points=[];autosize=1;strokeColor=none;fillColor=none;" vertex="1" parent="1">
          <mxGeometry x="90" y="585" width="180" height="30" as="geometry" />
        </mxCell>
        <mxCell id="UAd3JiqRcC5mZeyxN5Cx-9" value="[BMI &amp;gt;= 18,5]" style="text;html=1;align=center;verticalAlign=middle;resizable=0;points=[];autosize=1;strokeColor=none;fillColor=none;" vertex="1" parent="1">
          <mxGeometry x="110" y="468" width="100" height="30" as="geometry" />
        </mxCell>
        <mxCell id="UAd3JiqRcC5mZeyxN5Cx-10" value="[BMI &amp;gt; 24,9]" style="text;html=1;align=center;verticalAlign=middle;resizable=0;points=[];autosize=1;strokeColor=none;fillColor=none;" vertex="1" parent="1">
          <mxGeometry x="-50" y="585" width="90" height="30" as="geometry" />
        </mxCell>
        <mxCell id="UAd3JiqRcC5mZeyxN5Cx-14" value="" style="edgeStyle=orthogonalEdgeStyle;rounded=0;orthogonalLoop=1;jettySize=auto;html=1;" edge="1" parent="1" source="UAd3JiqRcC5mZeyxN5Cx-11" target="UAd3JiqRcC5mZeyxN5Cx-13">
          <mxGeometry relative="1" as="geometry" />
        </mxCell>
        <mxCell id="UAd3JiqRcC5mZeyxN5Cx-16" value="" style="edgeStyle=orthogonalEdgeStyle;rounded=0;orthogonalLoop=1;jettySize=auto;html=1;" edge="1" parent="1" source="UAd3JiqRcC5mZeyxN5Cx-11" target="UAd3JiqRcC5mZeyxN5Cx-15">
          <mxGeometry relative="1" as="geometry" />
        </mxCell>
        <mxCell id="UAd3JiqRcC5mZeyxN5Cx-11" value="" style="rhombus;" vertex="1" parent="1">
          <mxGeometry x="-157.5" y="710" width="30" height="30" as="geometry" />
        </mxCell>
        <mxCell id="jExioh1pFWAfIltBA22q-4" style="edgeStyle=orthogonalEdgeStyle;rounded=0;orthogonalLoop=1;jettySize=auto;html=1;entryX=0.5;entryY=0;entryDx=0;entryDy=0;" edge="1" parent="1" source="UAd3JiqRcC5mZeyxN5Cx-13" target="jExioh1pFWAfIltBA22q-1">
          <mxGeometry relative="1" as="geometry" />
        </mxCell>
        <mxCell id="UAd3JiqRcC5mZeyxN5Cx-13" value="Übergewicht" style="rounded=1;whiteSpace=wrap;html=1;" vertex="1" parent="1">
          <mxGeometry x="60" y="705" width="115" height="40" as="geometry" />
        </mxCell>
        <mxCell id="jExioh1pFWAfIltBA22q-3" style="edgeStyle=orthogonalEdgeStyle;rounded=0;orthogonalLoop=1;jettySize=auto;html=1;entryX=0;entryY=0.5;entryDx=0;entryDy=0;" edge="1" parent="1" source="UAd3JiqRcC5mZeyxN5Cx-15" target="jExioh1pFWAfIltBA22q-1">
          <mxGeometry relative="1" as="geometry">
            <Array as="points">
              <mxPoint x="-320" y="835" />
            </Array>
          </mxGeometry>
        </mxCell>
        <mxCell id="UAd3JiqRcC5mZeyxN5Cx-15" value="Starkes Übergewicht" style="rounded=1;whiteSpace=wrap;html=1;" vertex="1" parent="1">
          <mxGeometry x="-380" y="705" width="115" height="40" as="geometry" />
        </mxCell>
        <mxCell id="lKyMOhMjxR01Lc60jDbh-1" value="[BMI &amp;gt;= 25 &amp;amp;&amp;amp; BMI &amp;lt;=29,9]" style="text;html=1;align=center;verticalAlign=middle;resizable=0;points=[];autosize=1;strokeColor=none;fillColor=none;" vertex="1" parent="1">
          <mxGeometry x="-120" y="690" width="170" height="30" as="geometry" />
        </mxCell>
        <mxCell id="lKyMOhMjxR01Lc60jDbh-2" value="[BMI &amp;gt; 30]" style="text;html=1;align=center;verticalAlign=middle;resizable=0;points=[];autosize=1;strokeColor=none;fillColor=none;" vertex="1" parent="1">
          <mxGeometry x="-245" y="690" width="80" height="30" as="geometry" />
        </mxCell>
        <mxCell id="jExioh1pFWAfIltBA22q-1" value="" style="shape=sumEllipse;perimeter=ellipsePerimeter;html=1;backgroundOutline=1;" vertex="1" parent="1">
          <mxGeometry x="384" y="820" width="30" height="30" as="geometry" />
        </mxCell>
      </root>
    </mxGraphModel>
  </diagram>
  <diagram id="Gl6fT9Qq6ktO8Z4B762-" name="Elements">
    <mxGraphModel dx="1203" dy="1010" grid="1" gridSize="10" guides="1" tooltips="1" connect="1" arrows="1" fold="1" page="1" pageScale="1" pageWidth="850" pageHeight="1100" math="0" shadow="0">
      <root>
        <mxCell id="0" />
        <mxCell id="1" parent="0" />
        <mxCell id="U3VlQB3ibPWnBJ_EcGcF-1" value="Action" style="shape=rect;html=1;rounded=1;whiteSpace=wrap;align=center;" vertex="1" parent="1">
          <mxGeometry x="450" y="67" width="130" height="50" as="geometry" />
        </mxCell>
        <mxCell id="U3VlQB3ibPWnBJ_EcGcF-2" value="Horizontal Container" style="swimlane;horizontal=0;whiteSpace=wrap;html=1;" vertex="1" parent="1">
          <mxGeometry x="300" y="540" width="200" height="200" as="geometry" />
        </mxCell>
        <mxCell id="U3VlQB3ibPWnBJ_EcGcF-3" value="dimension1" style="shape=table;html=1;whiteSpace=wrap;startSize=20;container=1;collapsible=0;childLayout=tableLayout;fillColor=none;swimlaneFillColor=#ffffff;strokeColor=none;" vertex="1" parent="1">
          <mxGeometry x="610" y="177.5" width="180" height="200" as="geometry" />
        </mxCell>
        <mxCell id="U3VlQB3ibPWnBJ_EcGcF-4" value="" style="shape=partialRectangle;html=1;whiteSpace=wrap;collapsible=0;dropTarget=0;pointerEvents=0;fillColor=none;top=0;left=0;bottom=0;right=0;points=[[0,0.5],[1,0.5]];portConstraint=eastwest;strokeColor=none;" vertex="1" parent="U3VlQB3ibPWnBJ_EcGcF-3">
          <mxGeometry y="20" width="180" height="20" as="geometry" />
        </mxCell>
        <mxCell id="U3VlQB3ibPWnBJ_EcGcF-5" value="" style="shape=partialRectangle;html=1;whiteSpace=wrap;connectable=0;fillColor=none;top=1;left=1;bottom=1;right=1;overflow=hidden;strokeColor=none;" vertex="1" parent="U3VlQB3ibPWnBJ_EcGcF-4">
          <mxGeometry width="20" height="20" as="geometry">
            <mxRectangle width="20" height="20" as="alternateBounds" />
          </mxGeometry>
        </mxCell>
        <mxCell id="U3VlQB3ibPWnBJ_EcGcF-6" value="Partition1" style="shape=partialRectangle;html=1;whiteSpace=wrap;connectable=0;fillColor=none;top=1;left=1;bottom=1;right=1;overflow=hidden;" vertex="1" parent="U3VlQB3ibPWnBJ_EcGcF-4">
          <mxGeometry x="20" width="80" height="20" as="geometry">
            <mxRectangle width="80" height="20" as="alternateBounds" />
          </mxGeometry>
        </mxCell>
        <mxCell id="U3VlQB3ibPWnBJ_EcGcF-7" value="Partition2" style="shape=partialRectangle;html=1;whiteSpace=wrap;connectable=0;fillColor=none;top=1;left=1;bottom=1;right=1;overflow=hidden;" vertex="1" parent="U3VlQB3ibPWnBJ_EcGcF-4">
          <mxGeometry x="100" width="80" height="20" as="geometry">
            <mxRectangle width="80" height="20" as="alternateBounds" />
          </mxGeometry>
        </mxCell>
        <mxCell id="U3VlQB3ibPWnBJ_EcGcF-8" value="" style="shape=partialRectangle;html=1;whiteSpace=wrap;collapsible=0;dropTarget=0;pointerEvents=0;fillColor=none;top=1;left=1;bottom=1;right=1;points=[[0,0.5],[1,0.5]];portConstraint=eastwest;" vertex="1" parent="U3VlQB3ibPWnBJ_EcGcF-3">
          <mxGeometry y="40" width="180" height="70" as="geometry" />
        </mxCell>
        <mxCell id="U3VlQB3ibPWnBJ_EcGcF-9" value="Partition3" style="shape=partialRectangle;html=1;whiteSpace=wrap;connectable=0;fillColor=none;top=1;left=1;bottom=1;right=1;overflow=hidden;horizontal=0;" vertex="1" parent="U3VlQB3ibPWnBJ_EcGcF-8">
          <mxGeometry width="20" height="70" as="geometry">
            <mxRectangle width="20" height="70" as="alternateBounds" />
          </mxGeometry>
        </mxCell>
        <mxCell id="U3VlQB3ibPWnBJ_EcGcF-10" value="" style="shape=partialRectangle;html=1;whiteSpace=wrap;connectable=0;fillColor=none;top=1;left=1;bottom=1;right=1;overflow=hidden;" vertex="1" parent="U3VlQB3ibPWnBJ_EcGcF-8">
          <mxGeometry x="20" width="80" height="70" as="geometry">
            <mxRectangle width="80" height="70" as="alternateBounds" />
          </mxGeometry>
        </mxCell>
        <mxCell id="U3VlQB3ibPWnBJ_EcGcF-11" value="" style="shape=partialRectangle;html=1;whiteSpace=wrap;connectable=0;fillColor=none;top=1;left=1;bottom=1;right=1;overflow=hidden;" vertex="1" parent="U3VlQB3ibPWnBJ_EcGcF-8">
          <mxGeometry x="100" width="80" height="70" as="geometry">
            <mxRectangle width="80" height="70" as="alternateBounds" />
          </mxGeometry>
        </mxCell>
        <mxCell id="U3VlQB3ibPWnBJ_EcGcF-12" value="" style="shape=partialRectangle;html=1;whiteSpace=wrap;collapsible=0;dropTarget=0;pointerEvents=0;fillColor=none;top=1;left=1;bottom=1;right=1;points=[[0,0.5],[1,0.5]];portConstraint=eastwest;" vertex="1" parent="U3VlQB3ibPWnBJ_EcGcF-3">
          <mxGeometry y="110" width="180" height="90" as="geometry" />
        </mxCell>
        <mxCell id="U3VlQB3ibPWnBJ_EcGcF-13" value="Partition4" style="shape=partialRectangle;html=1;whiteSpace=wrap;connectable=0;fillColor=none;top=1;left=1;bottom=1;right=1;overflow=hidden;horizontal=0;" vertex="1" parent="U3VlQB3ibPWnBJ_EcGcF-12">
          <mxGeometry width="20" height="90" as="geometry">
            <mxRectangle width="20" height="90" as="alternateBounds" />
          </mxGeometry>
        </mxCell>
        <mxCell id="U3VlQB3ibPWnBJ_EcGcF-14" value="" style="shape=partialRectangle;html=1;whiteSpace=wrap;connectable=0;fillColor=none;top=1;left=1;bottom=1;right=1;overflow=hidden;" vertex="1" parent="U3VlQB3ibPWnBJ_EcGcF-12">
          <mxGeometry x="20" width="80" height="90" as="geometry">
            <mxRectangle width="80" height="90" as="alternateBounds" />
          </mxGeometry>
        </mxCell>
        <mxCell id="U3VlQB3ibPWnBJ_EcGcF-15" value="" style="shape=partialRectangle;html=1;whiteSpace=wrap;connectable=0;fillColor=none;top=1;left=1;bottom=1;right=1;overflow=hidden;" vertex="1" parent="U3VlQB3ibPWnBJ_EcGcF-12">
          <mxGeometry x="100" width="80" height="90" as="geometry">
            <mxRectangle width="80" height="90" as="alternateBounds" />
          </mxGeometry>
        </mxCell>
        <mxCell id="U3VlQB3ibPWnBJ_EcGcF-16" value="&lt;span style=&quot;text-align: center;&quot;&gt;Aktivitätsaufruf&lt;/span&gt;" style="shape=mxgraph.uml25.behaviorAction;html=1;rounded=1;absoluteArcSize=1;arcSize=10;align=left;spacingLeft=5;whiteSpace=wrap;" vertex="1" parent="1">
          <mxGeometry x="610" y="65" width="160" height="52" as="geometry" />
        </mxCell>
        <mxCell id="U3VlQB3ibPWnBJ_EcGcF-17" value="" style="html=1;points=[];perimeter=orthogonalPerimeter;fillColor=strokeColor;" vertex="1" parent="1">
          <mxGeometry x="1090" y="45" width="5" height="80" as="geometry" />
        </mxCell>
        <mxCell id="U3VlQB3ibPWnBJ_EcGcF-18" value="" style="html=1;points=[];perimeter=orthogonalPerimeter;fillColor=strokeColor;rotation=90;" vertex="1" parent="1">
          <mxGeometry x="1220" y="40" width="5" height="80" as="geometry" />
        </mxCell>
        <mxCell id="U3VlQB3ibPWnBJ_EcGcF-19" value="&lt;b&gt;Aktivität&lt;/b&gt;" style="shape=rect;html=1;rounded=1;whiteSpace=wrap;align=left;verticalAlign=top;spacingLeft=9;" vertex="1" parent="1">
          <mxGeometry x="70" y="205" width="470" height="145" as="geometry" />
        </mxCell>
        <mxCell id="U3VlQB3ibPWnBJ_EcGcF-20" value="" style="endArrow=open;startArrow=none;endFill=0;startFill=0;endSize=8;html=1;verticalAlign=bottom;labelBackgroundColor=none;strokeWidth=1;rounded=0;" edge="1" parent="1">
          <mxGeometry width="160" relative="1" as="geometry">
            <mxPoint x="70" y="460" as="sourcePoint" />
            <mxPoint x="230" y="460" as="targetPoint" />
          </mxGeometry>
        </mxCell>
        <mxCell id="U3VlQB3ibPWnBJ_EcGcF-21" value="Kontrollfluss" style="text;html=1;align=center;verticalAlign=middle;resizable=0;points=[];autosize=1;strokeColor=none;fillColor=none;" vertex="1" parent="1">
          <mxGeometry x="76" y="408" width="90" height="30" as="geometry" />
        </mxCell>
        <mxCell id="U3VlQB3ibPWnBJ_EcGcF-22" value="Vertical Container" style="swimlane;whiteSpace=wrap;html=1;" vertex="1" parent="1">
          <mxGeometry x="60" y="540" width="200" height="200" as="geometry" />
        </mxCell>
        <mxCell id="U3VlQB3ibPWnBJ_EcGcF-23" value="Pool" style="swimlane;childLayout=stackLayout;resizeParent=1;resizeParentMax=0;horizontal=0;startSize=20;horizontalStack=0;html=1;" vertex="1" parent="1">
          <mxGeometry x="60" y="770" width="480" height="360" as="geometry" />
        </mxCell>
        <mxCell id="U3VlQB3ibPWnBJ_EcGcF-24" value="Lane 1" style="swimlane;startSize=20;horizontal=0;html=1;" vertex="1" parent="U3VlQB3ibPWnBJ_EcGcF-23">
          <mxGeometry x="20" width="460" height="120" as="geometry" />
        </mxCell>
        <mxCell id="U3VlQB3ibPWnBJ_EcGcF-25" value="Lane 2" style="swimlane;startSize=20;horizontal=0;html=1;" vertex="1" parent="U3VlQB3ibPWnBJ_EcGcF-23">
          <mxGeometry x="20" y="120" width="460" height="120" as="geometry" />
        </mxCell>
        <mxCell id="U3VlQB3ibPWnBJ_EcGcF-26" value="Lane 3" style="swimlane;startSize=20;horizontal=0;html=1;" vertex="1" parent="U3VlQB3ibPWnBJ_EcGcF-23">
          <mxGeometry x="20" y="240" width="460" height="120" as="geometry" />
        </mxCell>
        <mxCell id="U3VlQB3ibPWnBJ_EcGcF-27" value="Pool" style="swimlane;childLayout=stackLayout;resizeParent=1;resizeParentMax=0;horizontal=1;startSize=20;horizontalStack=0;html=1;" vertex="1" parent="1">
          <mxGeometry x="610" y="770" width="480" height="380" as="geometry" />
        </mxCell>
        <mxCell id="U3VlQB3ibPWnBJ_EcGcF-28" value="Lane 1" style="swimlane;startSize=20;horizontal=0;html=1;" vertex="1" parent="U3VlQB3ibPWnBJ_EcGcF-27">
          <mxGeometry y="20" width="480" height="120" as="geometry" />
        </mxCell>
        <mxCell id="U3VlQB3ibPWnBJ_EcGcF-29" value="Lane 2" style="swimlane;startSize=20;horizontal=0;html=1;" vertex="1" parent="U3VlQB3ibPWnBJ_EcGcF-27">
          <mxGeometry y="140" width="480" height="120" as="geometry" />
        </mxCell>
        <mxCell id="U3VlQB3ibPWnBJ_EcGcF-30" value="Lane 3" style="swimlane;startSize=20;horizontal=0;html=1;" vertex="1" parent="U3VlQB3ibPWnBJ_EcGcF-27">
          <mxGeometry y="260" width="480" height="120" as="geometry" />
        </mxCell>
        <mxCell id="U3VlQB3ibPWnBJ_EcGcF-31" value="Pool" style="swimlane;childLayout=stackLayout;resizeParent=1;resizeParentMax=0;startSize=20;html=1;" vertex="1" parent="1">
          <mxGeometry x="1120.0000000000005" y="770" width="360" height="480" as="geometry" />
        </mxCell>
        <mxCell id="U3VlQB3ibPWnBJ_EcGcF-32" value="Lane 1" style="swimlane;startSize=20;html=1;" vertex="1" parent="U3VlQB3ibPWnBJ_EcGcF-31">
          <mxGeometry y="20" width="120" height="460" as="geometry" />
        </mxCell>
        <mxCell id="U3VlQB3ibPWnBJ_EcGcF-33" value="Lane 2" style="swimlane;startSize=20;html=1;" vertex="1" parent="U3VlQB3ibPWnBJ_EcGcF-31">
          <mxGeometry x="120" y="20" width="120" height="460" as="geometry" />
        </mxCell>
        <mxCell id="U3VlQB3ibPWnBJ_EcGcF-34" value="Lane 3" style="swimlane;startSize=20;html=1;" vertex="1" parent="U3VlQB3ibPWnBJ_EcGcF-31">
          <mxGeometry x="240" y="20" width="120" height="460" as="geometry" />
        </mxCell>
        <mxCell id="U3VlQB3ibPWnBJ_EcGcF-35" value="Pool" style="swimlane;childLayout=stackLayout;resizeParent=1;resizeParentMax=0;startSize=20;horizontal=0;horizontalStack=1;" vertex="1" parent="1">
          <mxGeometry x="900" y="260" width="380" height="480" as="geometry" />
        </mxCell>
        <mxCell id="U3VlQB3ibPWnBJ_EcGcF-36" value="Lane 1" style="swimlane;startSize=20;" vertex="1" parent="U3VlQB3ibPWnBJ_EcGcF-35">
          <mxGeometry x="20" width="120" height="480" as="geometry" />
        </mxCell>
        <mxCell id="U3VlQB3ibPWnBJ_EcGcF-37" value="Lane 2" style="swimlane;startSize=20;" vertex="1" parent="U3VlQB3ibPWnBJ_EcGcF-35">
          <mxGeometry x="140" width="120" height="480" as="geometry" />
        </mxCell>
        <mxCell id="U3VlQB3ibPWnBJ_EcGcF-38" value="Lane 3" style="swimlane;startSize=20;" vertex="1" parent="U3VlQB3ibPWnBJ_EcGcF-35">
          <mxGeometry x="260" width="120" height="480" as="geometry" />
        </mxCell>
        <mxCell id="U3VlQB3ibPWnBJ_EcGcF-39" value="" style="ellipse;fillColor=strokeColor;html=1;" vertex="1" parent="1">
          <mxGeometry x="100" y="76" width="30" height="30" as="geometry" />
        </mxCell>
        <mxCell id="U3VlQB3ibPWnBJ_EcGcF-40" value="" style="ellipse;html=1;shape=endState;fillColor=strokeColor;" vertex="1" parent="1">
          <mxGeometry x="166" y="77" width="30" height="30" as="geometry" />
        </mxCell>
        <mxCell id="U3VlQB3ibPWnBJ_EcGcF-41" value="" style="shape=sumEllipse;perimeter=ellipsePerimeter;html=1;backgroundOutline=1;" vertex="1" parent="1">
          <mxGeometry x="230" y="78" width="30" height="30" as="geometry" />
        </mxCell>
        <mxCell id="U3VlQB3ibPWnBJ_EcGcF-42" value="" style="rhombus;" vertex="1" parent="1">
          <mxGeometry x="330" y="77" width="30" height="30" as="geometry" />
        </mxCell>
        <mxCell id="U3VlQB3ibPWnBJ_EcGcF-43" value="" style="endArrow=open;html=1;rounded=0;align=center;verticalAlign=top;endFill=0;labelBackgroundColor=none;" edge="1" parent="1">
          <mxGeometry relative="1" as="geometry">
            <mxPoint x="320" y="460" as="sourcePoint" />
            <mxPoint x="480" y="460" as="targetPoint" />
            <mxPoint as="offset" />
          </mxGeometry>
        </mxCell>
        <mxCell id="U3VlQB3ibPWnBJ_EcGcF-44" value="[Bedingung]" style="resizable=0;html=1;align=right;verticalAlign=bottom;labelBackgroundColor=none;" connectable="0" vertex="1" parent="U3VlQB3ibPWnBJ_EcGcF-43">
          <mxGeometry x="1" relative="1" as="geometry" />
        </mxCell>
        <mxCell id="U3VlQB3ibPWnBJ_EcGcF-45" value="Object" style="html=1;whiteSpace=wrap;" vertex="1" parent="1">
          <mxGeometry x="820" y="66" width="110" height="50" as="geometry" />
        </mxCell>
      </root>
    </mxGraphModel>
  </diagram>
</mxfile>
